<svg width="917" height="688" viewBox="0 0 917 688" fill="none" xmlns="http://www.w3.org/2000/svg">
<path fill-rule="evenodd" clip-rule="evenodd" d="M508.879 163.74C499.353 167.522 492.953 176.344 490.744 186.227C489.721 190.796 490.691 197.77 487.698 201.454C484.114 205.862 478.543 202.046 474.413 204.809C464.991 211.112 475.08 222.491 482.101 224.364C487.699 225.858 493.395 226.773 499.024 227.864C504.31 228.887 506.891 233.559 510.064 237.792C505.681 237.062 501.382 235.958 496.975 235.262C495.078 234.962 492.327 234.019 490.352 234.14C487.969 234.288 486.449 235.948 484.185 236.341C480.293 237.017 477.616 234.518 476.083 239.41C474.954 243.014 476.749 247.322 479.976 249.101C477.124 251.891 470.546 252.642 466.816 253.8C461.413 255.476 455.916 256.565 450.905 259.395C450.905 250.586 451.014 243.613 446.711 235.555C444.623 231.644 440.64 220.657 436.37 219.022C435.087 218.53 433.275 218.801 431.936 218.402C430.545 217.987 429.776 216.777 428.218 216.736C425.383 216.66 422.323 219.971 420.64 222.134C416.385 227.606 416.551 236.36 416.814 242.951C417.085 249.764 417.774 258.317 420.558 264.62C421.204 266.084 421.868 267.73 423.279 268.61C424.305 269.249 426.216 268.745 427.005 269.471C429.869 272.111 425.891 273.623 423.681 275.239C418.035 279.368 413.157 283.369 409.026 288.912C405.538 293.591 400.098 299.27 399.206 305.267C395.367 300.07 392.668 294.206 389.724 288.487C388.052 285.239 388.016 285.897 389.794 283.437C391.181 281.52 393.617 279.525 395.596 278.185C399.644 275.445 403.829 272.495 405.017 267.281C405.915 263.338 403.768 256.052 402.537 252.062C400.963 246.964 396.851 243.053 391.577 246.03C387.671 248.237 385.792 256.125 382.004 257.229C377.731 258.475 378.319 248.115 377.924 245.24C377.191 239.877 374.356 230.858 376.128 225.59C377.508 221.489 384.162 219.303 387.618 216.808C392.752 213.102 397.814 208.383 401.424 203.145C405.125 197.773 404.798 192.302 404.135 186.041C403.748 182.389 403.147 172.45 397.053 174.558C393.545 175.771 377.868 197.113 375.093 189.539C374.311 187.403 376.001 182.02 376.298 179.557C376.515 177.762 376.48 169.205 377.692 168.013C378.157 167.554 383.654 166.813 384.856 166.074C387.737 164.298 389.901 161.971 391.635 159.076C397.377 149.488 390.848 134.501 380.058 132.095C373.023 130.526 369.22 132.993 365.283 138.659C361.472 144.143 353.994 141.772 347.633 143.094C346.436 139.838 350.646 133.432 351.76 130.295C353.399 125.673 355.209 120.874 355.863 115.998C357.136 106.482 354.941 96.2179 351.922 87.2502C355.544 87.8055 360.692 87.5852 363.184 90.2941C365.683 93.0075 366.792 98.5784 368.902 101.84C372.973 108.132 377.652 114.998 383.255 120.002C390.572 126.535 393.465 123.484 399.073 117.417C404.757 111.268 401.778 102.589 399.758 94.9955C404.357 94.306 409.672 95.6 414.193 96.328C418.29 96.9871 425.977 97.1358 429.454 99.6109C432.055 101.462 431.131 103.48 431.384 107.119C431.726 112.041 432.499 117.017 433.997 121.731C437.043 131.323 443.924 134.615 452.196 128.444C455.07 132.3 458.191 137.4 462.629 139.586C466.984 141.735 475.081 143.502 479.956 143.856C486.092 144.3 490.994 141.571 496.068 138.471C498.551 136.954 499.25 135.709 501.418 136.9C503.02 137.781 505.136 141.944 506.763 143.382C508.585 144.993 510.59 146.475 512.543 147.921C513.454 148.67 514.4 149.373 515.381 150.027C517.539 150.543 518.265 151.824 517.557 153.869C518.922 157.809 519.185 161.983 520.338 165.965C521.7 170.669 524.935 173.232 529.283 174.967C530.791 175.396 532.273 175.905 533.727 176.493C536.318 176.544 536.907 177.592 535.491 179.636C535.49 182.384 532.7 186.562 531.207 188.725C529.741 184.651 524.074 180.114 519.678 181.842C514.566 183.85 514.368 189.724 514.731 194.318C511.538 192.815 508.794 190.646 506.064 188.448C504.737 187.38 502.541 186.141 501.565 184.715C499.875 182.243 500.023 183.525 501.212 180.173C502.526 176.466 512.258 167.346 508.879 163.74Z" fill="#8C3503"/>
<path fill-rule="evenodd" clip-rule="evenodd" d="M475.771 15.76C480.181 16.9126 480.531 18.7116 483.874 20.6952C487.277 22.7155 493.781 21.0677 498.121 22.3985C500.398 23.0969 501.802 24.3605 503.748 25.582C504.927 26.3226 504.78 26.7166 506.018 27.2306C506.662 27.4975 508.114 27.176 508.875 27.3417C514.152 28.496 514.624 34.7081 517.985 35.926C520.571 36.8645 521.788 35.0466 524.628 37.0454C526.232 38.1746 527.818 40.2835 528.666 42.0369C529.082 42.8975 529.486 45.7927 529.848 46.2234C530.992 47.5846 530.528 46.8449 531.639 47.6088C533.924 49.1795 536.612 49.1688 539.12 51.8141C542.523 55.4033 546.577 58.2474 547.386 63.4297C547.523 64.3089 547.551 65.118 547.517 65.8958L547.488 65.4366C547.548 66.4539 547.609 67.4694 547.668 68.4849C547.617 67.6216 547.565 66.7589 547.515 65.8975C547.441 67.6383 547.057 69.2216 546.902 71.0819C546.749 72.9132 546.506 72.9194 546.891 74.2323C547.151 75.1161 548.671 76.3071 549.038 77.611C551.92 87.835 535.337 99.3513 526.81 93.6003C523.328 100.964 520.817 108.713 517.469 116.116C515.636 120.173 505.987 129.662 506.685 132.547C507.259 134.924 512.749 136.522 514.665 137.667C518.136 139.745 521.498 142.251 524.829 144.547C527.723 146.542 530.498 148.665 533.317 150.719L533.22 150.694C534.833 151.066 536.032 151.989 536.95 153.283C538.88 154.593 540.861 155.833 542.942 156.943C546.144 158.653 546.998 158.985 548.368 162.396C549.772 165.886 548.021 164.667 551.08 166.897C557.024 171.229 566.077 173.113 572.809 176.06C587.743 182.592 602.371 186.019 618.79 183.179C633.532 180.629 647.306 173.556 661.103 168.033C674.762 162.566 688.369 156.584 701.317 149.64C713.563 143.072 725.685 136.124 736.984 127.897C743.316 123.287 750.009 119.18 756.094 114.253C762.074 109.413 767.646 104.043 773.718 99.3539C785.615 90.166 798.162 81.3695 810.721 73.0439C814.3 70.6717 817.813 68.2001 821.311 65.7106C823.418 64.2124 827.639 59.8495 830.424 60.3895C839.117 62.0713 830.41 73.3036 828.942 76.5901C833.237 74.2958 836.739 70.9063 841.207 68.792C843.492 67.7103 849.81 63.8838 852.224 65.4957C857.894 69.2792 844.51 81.7527 842.355 84.6479C845.942 82.6017 858.019 74.5009 860.951 81.1312C864.021 88.0723 852.859 96.3003 848.793 100.168C836.799 111.577 822.947 120.561 810.745 131.634C809.061 133.161 803.546 136.526 803.961 139.278C804.349 141.849 809.419 144.819 811.234 146.526C814.804 149.88 826.133 160.797 818.919 166.304C816.374 168.246 809.116 166.639 806.072 166.317C801.612 165.847 797.219 165.484 792.795 164.745C786.292 163.658 779.916 158.558 773.405 158.365C766.086 158.149 758.204 164.625 751.907 167.749C744.51 171.418 737.403 175.481 730.041 179.229C715.987 186.383 702.572 194.399 688.069 200.846C672.168 207.916 655.115 212.49 639.41 220.001C623.428 227.645 608.021 230.074 590.515 229.534C573.429 229.007 555.163 217.688 541.639 207.994C540.858 207.429 540.076 206.864 539.296 206.299C537.846 204.086 536.581 204.029 535.501 206.125C533.306 206.484 532.397 206.826 529.781 206.642C525.507 206.343 523.372 205.381 519.451 203.931C510.566 200.646 503.852 198.083 497.571 190.413C493.454 201.12 503.834 212.418 509.391 220.798C512.453 225.416 515.936 229.821 518.575 234.702C520.718 238.667 521.492 244.827 525.593 246.569C528.043 247.61 529.558 245.888 531.209 248.358C532.287 249.97 531.107 251.821 530.896 253.184C530.357 256.647 528.685 251.767 529.883 256.874C530.262 258.487 532.531 261.562 533.286 263.043C538.431 273.139 542.627 283.702 547.028 294.146C551.407 304.535 555.747 314.825 560.037 325.233C561.888 329.725 564.485 333.865 566.25 338.405C568.402 343.94 569.725 349.721 571.775 355.299C574.957 363.959 575.567 375.412 572.941 384.365C570.37 393.131 559.203 402.143 550.302 401.582C554.423 409.831 559.097 417.249 563.391 425.351C567.415 432.942 570.226 441.05 574.401 448.367C579.154 456.697 583.305 465.586 588.072 473.746C592.098 480.638 594.625 488.487 598.407 495.49C607.03 511.455 615.343 528.055 624.587 543.896C629.965 553.111 634.811 562.592 640.268 571.777C643.185 576.688 646.167 581.556 649.139 586.435C650.854 589.252 652.795 595.44 656.014 596.802C655.088 597.769 652.119 599.989 652.012 601.399C651.728 605.153 655.524 604.115 657.651 603.597C663.051 602.282 668.253 600.904 673.473 599.03C683.469 595.442 692.984 590.363 703.092 587.144C713.588 583.799 723.478 577.965 734.372 575.479C739.328 574.349 755.63 567.397 757.067 573.227C757.339 574.33 756.628 576.98 756.64 578.317C756.66 580.682 757.278 582.792 756.942 585.25C756.295 589.957 753.711 594.659 751.192 598.588C745.162 607.993 738.402 617.214 730.453 625.077C716.825 638.561 704.507 656.643 687.69 666.269C684.354 668.18 681.191 671.565 677.419 672.57C673.229 673.685 669.669 672.282 665.923 672.125C663.863 672.039 663.751 673.186 661.268 672.251C659.228 671.482 656.606 669 654.941 667.686C650.74 664.37 647.191 660.171 643.723 656.106C640.656 652.511 637.407 645.648 633.257 643.352C630.951 642.077 631.075 644.123 629.006 641.286C627.863 639.719 627.759 638.118 626.347 636.546C624.841 634.87 623.89 634.632 622.893 632.608C622.196 631.194 622.169 629.817 621.269 628.365C618.273 623.534 613.744 619.39 610.532 614.611C605.733 607.469 599.569 601.294 594.519 594.357C588.475 586.057 581.754 577.79 575.197 569.903C562.567 554.708 550.953 537.949 538.993 521.894C526.055 504.528 513.972 485.991 503.182 467.19C497.4 457.113 490.406 447.361 484.334 437.4C478.397 427.663 472.932 417.461 465.989 408.426C464.651 409.485 466.913 413.328 465.268 414.903C463.548 416.553 455.494 416.618 453.296 416.998C445.79 418.295 437.797 419.737 430.168 420.027C414.459 420.623 398.969 423.815 383.135 424.503C379.596 424.657 376.79 424.097 373.377 423.386C368.258 422.318 367.297 421.706 366.249 426.739C364.654 434.396 362.768 442.584 362.062 450.343C361.333 458.359 361.202 466.382 361.09 474.432C361.038 478.268 360.934 482.108 360.952 485.944C360.979 491.521 362.496 496.963 362.206 502.531C361.837 509.627 360.592 515.798 353.283 517.798C349.195 518.916 349.113 518.346 346.224 516.098C343.187 513.737 339.176 511.604 336.618 508.805C327.109 498.403 319.576 483.831 316.706 469.924C313.454 454.164 317.831 437.173 319.426 421.503C320.097 414.917 320.355 404.332 324.99 399.1C329.942 393.51 340.052 393.697 346.708 393.622C348.228 393.605 349.401 393.451 350.416 393.181C350.186 393.161 349.956 393.149 349.729 393.155L351.024 393.001C352.842 392.402 354.228 391.408 356.468 390.172C359.614 388.437 364.169 387.558 367.569 386.25C376.81 382.692 386.541 380.896 395.902 377.738C403.472 375.184 410.993 373.683 418.68 371.822C424.305 370.459 430.173 370.2 435.812 369.239C435.168 369.164 434.524 369.088 433.894 369.174C435.23 368.303 436.682 368.778 438.095 368.804C439.465 368.513 440.817 368.164 442.144 367.731C433.304 351.664 425.229 335.284 415.432 319.751C413.291 323.662 409.66 323.732 405.41 322.396C403.032 321.648 402.042 319.298 399.816 318.461C398.428 317.939 397.599 319.522 396.145 318.393C395.298 317.738 394.779 315.421 394.285 313.437C386.12 305.195 382.254 295.846 378.477 284.962C381.252 290.118 383.787 295.428 386.659 300.53C387.31 301.688 388.141 302.861 389.029 304.049L388.772 303.669C387.591 301.917 386.442 300.137 385.432 298.238C376.517 281.473 371.762 265.027 368.855 246.321C366.252 229.571 365.721 211.885 366.293 194.954L366.191 197.12C366.226 196.383 366.261 195.645 366.296 194.907L366.293 194.954C366.333 193.774 366.389 192.603 366.461 191.439L366.46 191.439C366.905 184.217 367.961 177.283 369.64 170.139C370.296 167.347 371.667 163.237 371.726 160.463C371.762 158.778 371.277 150.539 370.729 150.08C368.608 148.3 360.36 149.686 358.031 149.927C353.791 150.367 349.577 151.034 345.338 151.479C344.486 151.561 343.633 151.643 342.781 151.724C341.144 151.305 339.949 151.769 339.198 153.116C336.968 153.508 339.786 155.356 336.68 153.547C333.072 151.447 333.163 143.633 333.15 140.089C333.144 138.748 334.136 133.078 333.212 132.089C332.5 131.327 327.618 131.633 326.398 131.532C321.76 131.154 317.092 130.593 312.441 130.407C303.259 130.038 293.941 130.267 284.76 130.307C268.444 130.377 252.99 137.806 239.362 146.194C233.069 150.067 226.123 152.764 219.909 156.718C213.796 160.609 208.426 165.387 202.419 169.474C194.02 175.187 185.217 179.976 177.428 186.516C173.698 189.646 168.746 192.777 166.014 196.921C163.269 201.083 165.118 205.791 165.003 210.565C164.878 215.737 165.204 221.222 164.318 226.29C164.011 228.048 163.738 231.398 162.119 232.547C159.651 234.3 160.273 233.019 158.157 231.85C149.002 226.787 147.376 217.311 144.736 208.275C129.605 228.588 119.548 252.05 105.24 273.047C103.049 276.263 99.2305 283.076 94.6303 279.776C91.8623 277.791 91.3963 273.923 91.7157 270.191L91.7191 271.228C91.7146 270.236 91.712 269.248 91.7093 268.261C91.7122 268.903 91.7147 269.544 91.7166 270.185C91.9313 267.68 92.4995 265.238 92.9629 263.467C94.7011 256.827 96.2216 250.038 99.3497 243.888C100.918 240.806 102.792 237.886 104.382 234.817C105.196 233.249 107.721 230.129 107.61 228.368C106.85 229.332 106.093 230.294 105.333 231.259C101.762 232.982 99.0389 238.56 96.0891 241.335C93.4053 243.859 90.357 246.372 87.4591 248.782C82.1425 253.2 77.5243 258 73.0181 263.382C70.2833 266.647 66.8176 269.753 64.381 263.768C62.5183 259.194 65.4395 255.088 67.5752 251.18C70.3674 246.071 73.1749 241.446 76.8832 236.962C80.0246 233.166 84.4359 229.118 85.6672 224.334C79.4067 228.676 73.7919 233.742 67.0227 237.369C61.6362 240.254 52.9364 240.096 56.256 231.444C58.6667 225.164 66.0959 217.532 71.0032 212.958C76.1032 208.203 81.9589 203.782 87.4358 199.424C100.169 189.293 114.367 180.97 127.797 171.769C140.06 163.368 152.6 155.439 164.783 147.215C192.139 128.748 218.921 108.1 250.618 97.502C265.338 92.5803 280.821 88.7449 296.085 86.1013C303.961 84.7375 312.38 82.7888 320.349 82.4369C323.287 82.3071 326.123 82.8614 329.028 82.6859C332.048 82.5041 335.782 83.3002 338.754 82.6115C341.882 81.888 344.64 78.5459 347.749 78.7501C348.775 78.8182 349.724 79.8955 350.76 79.9975C350.76 79.9978 350.76 79.9975 350.76 79.9972C352.051 79.8593 353.314 78.8187 354.531 79.9175C354.53 79.9178 354.53 79.9178 354.531 79.9178C358.844 80.0429 363.151 80.1018 367.444 80.3171L367.254 80.3983C368.8 79.7034 370.344 79.818 371.887 80.4081C370.92 80.4059 369.954 80.404 368.988 80.402C372.326 80.6009 375.654 80.9109 378.968 81.4366C393.342 83.7166 410.115 84.9147 423.832 90.6479C423.769 90.5796 423.709 90.5079 423.648 90.4343C424.871 90.1746 425.798 90.6528 426.537 91.5967C426.407 91.635 426.281 91.6629 426.158 91.681C427.717 92.4111 429.228 93.209 430.686 94.0821C432.9 89.3234 428.762 90.758 424.915 88.9813C420.665 87.0192 417.316 84.5673 414.139 81.2253C411.422 78.3686 409.098 74.8036 410.046 70.5472C410.537 68.3461 412.99 67.4712 413.426 65.8584C413.574 65.3094 412.071 63.4799 412.009 62.6918C411.859 60.8059 411.854 59.3606 412.288 57.5042C414.496 48.0897 413.543 36.0066 424.225 31.9679C426.537 31.0947 426.487 32.0664 428.204 30.2476C429.866 28.4888 430.485 25.5685 432.386 23.671C436.02 20.0424 440.562 17.2144 445.594 16.0986C450.87 14.9281 455.338 16.7433 460.41 16.5651C465.912 16.3717 470.019 14.2556 475.771 15.76ZM740.642 589.166C736.876 592.236 732.984 595.258 729.081 598.15C720.151 604.77 711.832 612.012 703.372 619.22C695.718 625.74 687.522 631.58 679.553 637.699C671.979 643.514 665.237 650.371 658.15 656.78C662.766 659.476 667.786 663.452 673.363 662.171C677.89 661.13 683.235 657.192 687.139 654.634C696.23 648.682 703.832 640.474 711.426 632.797C718.871 625.272 725.983 617.924 733.012 610.117C740.914 601.339 746.503 592.973 751.792 582.456C747.764 579.782 743.343 586.966 740.642 589.166ZM673.089 610.36C667.779 612.081 662.275 612.835 656.981 614.463C652.376 615.879 648.431 620.347 645.529 624.058C643.623 626.495 642.374 629.362 640.669 631.987C639.704 633.473 636.02 636.967 636.066 638.419C636.125 640.293 641.542 644.993 642.817 646.433C645.179 649.1 647.607 651.707 650.079 654.272C653.71 646.636 662.397 640.226 668.881 634.989C675.607 629.554 682.664 624.175 689.63 618.793C705.011 606.908 719.492 595.178 736.103 584.895C735.104 582.495 679.265 608.356 673.089 610.36ZM647.381 605.879C642.311 612.173 634.613 619.28 632.965 627.53C636.16 623.845 638.984 619.795 642.076 616.016C643.421 614.374 644.82 612.91 646.331 611.418C649.098 608.683 649.977 608.929 647.381 605.879ZM516.775 257.29C506.64 258.049 496.396 259.833 486.41 262.028L485.95 262.027C486.683 262.027 487.404 262.029 488.127 262.031C487.552 262.031 486.977 262.03 486.406 262.029C483.995 262.558 481.598 263.112 479.221 263.681C455.808 269.288 432.54 280.453 415.635 297.831L415.068 298.419C414.28 299.67 412.445 301.419 412.81 303.103C411.665 302.383 411.304 301.762 411.417 301.202C411.257 301.435 411.115 301.686 410.994 301.961C415.785 304.972 418.845 311.886 422.009 316.553C425.577 321.815 429.572 326.762 432.988 332.136C440.413 343.818 447.533 355.883 454.205 368.014C465.753 389.008 479.972 408.935 492.673 429.252C505.352 449.537 517.451 469.527 530.126 489.785C543.619 511.349 559.098 531.666 573.037 552.688C581.348 565.222 590.84 576.98 599.355 589.397C607.411 601.147 615.355 612.898 623.562 624.544C627.891 612.386 636.33 601.946 647.991 595.796C632.111 573.257 616.915 550.417 602.935 526.626C590.891 506.13 580.27 485.568 569.086 464.822C558.068 444.383 547.197 423.926 536.062 403.503C530.501 393.304 525.817 382.587 521.046 371.931C515.97 360.592 513.837 347.966 508.342 336.841C505.773 331.64 502.292 325.636 502.634 319.61C502.957 313.928 506.905 308.127 509.941 303.548C511.744 300.83 515.199 293.274 518.908 293.237C525.602 293.171 517.671 306.841 516.623 309.532C511.798 321.924 518.514 332.638 523.565 343.739C528.497 354.58 532.418 365.955 537.666 376.668C539.869 381.165 542.106 385.555 544.111 390.117C544.804 391.693 546.706 396.869 548.467 397.381C549.475 397.674 554.472 394.44 555.242 393.948C559.153 391.454 564.483 387.119 566.83 383.08C569.153 379.083 568.211 372.26 567.145 367.985C564.052 355.567 557.539 343.755 552.419 332.106C547.045 319.878 541.406 307.493 536.775 294.962C534.272 288.192 532.019 281.362 529.282 274.675C527.727 270.873 526.1 267.102 524.371 263.377C522.174 258.642 522.008 256.898 516.775 257.29ZM337.198 405.08C332.32 407.439 331.026 408.687 330.032 413.979C328.998 419.479 329.456 424.907 328.888 430.436L328.884 430.473L328.813 431.444C328.837 431.124 328.86 430.803 328.883 430.483L328.888 430.436C328.003 439.029 326.913 447.621 326.387 456.114C325.698 467.218 329.767 477.583 334.592 487.27C336.716 491.535 338.88 495.678 342.101 499.249C344.079 501.442 346.372 503.303 348.643 505.176C351.517 507.543 351.954 509.004 353.83 505.796C356.134 501.853 354.296 495.452 353.643 491.198C352.613 484.49 352.078 478.089 352.162 471.275C352.421 468.202 352.604 465.124 352.777 462.046C352.775 461.797 352.773 461.548 352.772 461.299L352.778 462.04C353.2 454.519 353.561 446.996 354.797 439.533C355.242 436.85 355.779 434.179 356.445 431.543C357.053 429.136 359.521 424.771 359.323 422.41C359.123 420.029 355.417 415.586 354.717 411.628C354.317 409.358 354.312 406.953 354.186 404.66C354.002 401.336 354.797 400.531 351.92 399.606C348.483 398.5 340.148 403.654 337.198 405.08ZM286.819 379.059C285.513 383.026 280.2 386.975 277.454 389.932C269.958 398.005 264.153 406.208 258.27 415.449C248.829 430.273 240.225 447.548 236.285 464.897C226.234 467.675 229.731 446.995 231.111 442.993C234.498 433.172 238.447 423.519 243.585 414.487C248.298 406.204 254.734 397.229 261.317 390.327C264.037 387.473 267.243 383.994 270.209 381.339C272.824 378.997 278.696 373.3 281.972 372.761C285.797 372.132 288.146 375.029 286.819 379.059ZM645.875 318.464C651.74 329.343 654.6 342.779 656.712 354.879C658.627 365.842 660.144 377.817 659.855 388.948C660.14 390.859 660.255 392.779 660.28 394.704L660.239 396.449C660.272 395.031 660.306 393.612 660.34 392.197C660.917 393.603 660.987 394.994 660.283 396.365C660.252 399.171 660.083 401.983 660.022 404.789C659.934 408.848 660.797 417.138 658.029 420.629C653.808 425.953 652.547 416.408 652.285 413.798C651.629 407.268 651.535 400.66 651.019 394.116C649.207 371.178 646.243 345.83 637.421 324.463C636.584 322.436 635.267 318.093 633.658 316.656C632.519 315.64 631.644 316.755 630.333 314.978C628.964 313.126 627.026 302.342 629.387 300.252C634.334 295.87 643.845 314.699 645.875 318.464ZM244.205 371.901C251.226 376.796 225.457 388.737 222.002 390.93C215.826 394.85 209.67 398.654 203.633 402.799C197.292 407.153 191.291 412.368 184.772 416.34C176.601 406.72 199.608 392.714 206.283 389.125C213.064 385.48 219.518 381.33 226.563 378.239C229.931 376.761 240.645 369.419 244.205 371.901ZM444.014 375.439C442.631 375.654 439.959 377.325 438.621 377.795C425.448 382.431 410.25 384.627 398.111 391.205C389.913 391.286 381.266 396.182 373.406 398.441C370.285 399.338 364.033 400.228 361.409 402.013C358.469 404.015 359.873 412.278 359.873 415.928C364.987 411.135 370.986 412.116 377.753 411.828C387.272 411.423 396.728 410.484 406.195 409.939C416.236 409.362 426.048 407.804 436.137 407.843C446.072 407.882 455.794 405.808 465.577 407.72C463.871 401.02 457.733 393.845 454.001 388.114C451.703 384.585 450.014 380.091 447.402 376.82C445.418 374.334 446.816 375.001 444.014 375.439ZM377.189 411.816L373.805 411.871C374.919 410.967 376.051 411.178 377.189 411.816ZM677.021 330.531C681.857 344.318 686.323 357.773 686.621 372.552C686.723 377.674 686.866 385.753 684.697 390.471C681.088 398.321 677.839 391.375 677.984 385.986C676.798 372.437 675.181 358.801 672.256 345.5C670.896 339.314 667.891 331.497 668.976 325.085C670.573 315.657 675.945 327.464 677.021 330.531ZM677.984 385.986C677.949 387.31 677.913 388.636 677.875 389.956C677.91 388.629 677.947 387.308 677.984 385.986ZM708.212 356.393C709.784 360.521 712.479 370.357 709.88 374.416C706.412 379.833 703.817 373.762 702.802 369.872C701.206 363.748 701.322 357.384 699.012 351.458C702.536 343.955 706.223 351.168 708.212 356.393ZM214.044 350.632C214.044 354.963 207.436 356.29 203.865 358.083C201.235 359.403 198.151 363.258 196.47 360.184C193.644 355.016 210.569 350.632 214.044 350.632ZM351.925 87.2503C354.942 96.2116 357.139 106.491 355.866 115.998C355.211 120.884 353.4 125.665 351.763 130.295C350.753 133.153 346.495 139.991 347.636 143.094C352.336 142.118 360.061 143.747 363.866 141.13C368.192 138.155 367.799 131.941 374.619 131.526C385.085 130.888 393.515 140.18 394.246 150.589C394.624 155.976 390.657 161.671 386.628 164.853C384.455 166.569 382.393 167.113 380.005 168.188C378.42 168.902 377.954 168.871 377.85 168.834L377.846 168.832L377.852 168.839C377.919 168.93 378.035 169.35 377.342 170.935C376.482 172.904 376.728 176.025 376.474 178.129C376.101 181.214 374.863 185.067 375.27 188.106C375.707 191.38 375.565 191.727 379.112 190.561C383.188 189.22 388.417 183.582 391.479 180.546C394.481 177.569 397.454 171.184 401.769 176.293C405.078 180.212 405.071 190.047 404.565 194.906C403.391 206.198 390.529 215.401 381.53 220.764C375.186 224.545 376.096 227.022 376.495 234.158C376.818 239.948 377.728 245.783 378.497 251.526C379.428 258.465 381.656 258.572 385.061 253.425C387.667 249.487 391.934 243.034 397.533 245.293C403.091 247.535 402.613 254.745 403.857 259.459C405.599 266.056 405.039 271.021 399.428 275.842C396.88 278.032 388.669 281.595 387.971 285.145C387.632 286.871 391.614 292.27 392.564 294.114C394.548 297.969 396.628 301.772 399.21 305.267C400.083 299.396 405.22 294.42 408.433 289.739C412.314 284.087 417.058 280.109 422.624 276.009C424.663 274.509 429.804 272.493 427.396 269.888C425.306 267.625 423.129 269.297 421.058 265.67C417.587 259.591 417.09 249.8 416.817 242.951C416.574 236.834 416.351 228.253 419.986 222.948C424.411 216.489 428.843 216.243 435.475 218.995C440.651 221.143 443.365 229.496 446.133 234.482C450.815 242.91 450.908 250.07 450.908 259.395C455.919 256.565 461.416 255.476 466.819 253.8C470.549 252.642 477.128 251.891 479.979 249.101C476.919 247.415 475.286 243.75 475.921 240.292C476.964 234.624 479.873 237.09 484.189 236.341C486.123 236.005 487.523 234.544 489.469 234.265C491.461 233.98 493.602 234.774 495.583 235.08C500.465 235.835 505.22 236.985 510.067 237.792C507.367 234.191 504.643 229.29 500.299 227.933C495.064 226.296 488.767 226.032 483.299 224.665C476.246 222.904 464.089 211.718 474.416 204.81C478.319 202.199 483.448 205.509 487.144 202.009C490.647 198.69 489.613 191.792 490.552 187.322C492.718 177.022 498.871 167.714 508.882 163.74C512.316 167.405 502.541 176.444 501.215 180.173C500.425 182.394 499.821 182.149 500.636 183.993C501.201 185.275 503.972 186.725 505.171 187.706L506.175 188.526C508.855 190.709 511.584 192.835 514.734 194.318C514.371 189.717 514.546 183.859 519.681 181.842C524.093 180.108 529.747 184.661 531.21 188.725C532.704 186.562 535.493 182.385 535.494 179.636C536.909 177.592 536.322 176.544 533.73 176.493C532.635 176.038 531.519 175.644 530.383 175.31C525.56 173.416 521.895 171.296 520.341 165.965C519.181 161.982 518.924 157.804 517.561 153.869C518.268 151.824 517.543 150.543 515.385 150.027C514.711 149.543 514.039 149.059 513.365 148.575C511.136 146.936 508.84 145.215 506.766 143.383C505.134 141.939 503.611 138.946 501.965 137.837C501.597 137.066 501.095 136.388 500.463 135.805C499.004 136.702 497.541 137.59 496.071 138.471C490.983 141.58 486.13 144.341 479.959 143.856C475.141 143.477 468.002 141.829 463.51 140.036C458.602 138.078 455.227 132.506 452.199 128.444C443.927 134.615 437.06 131.306 434 121.731C432.634 117.459 431.868 112.932 431.48 108.471C431.164 104.826 432.25 101.597 429.457 99.611C425.97 97.1304 418.313 96.9889 414.196 96.328C409.681 95.6027 404.356 94.3069 399.761 94.9955C401.776 102.568 404.779 111.293 399.075 117.417C393.441 123.469 390.605 126.56 383.259 120.002C377.64 114.984 373.01 108.131 368.906 101.84C366.754 98.5408 365.796 94.2397 363.62 91.1135C361.116 87.5153 356.137 87.8959 351.925 87.2503ZM344.824 88.7857C342.961 88.7493 338.542 89.5786 336.695 89.9475C331.671 90.9523 326.679 91.769 321.416 92.609C309.617 94.4904 297.876 96.928 286.131 99.0351C275.355 100.969 263.4 103.609 253.156 107.71C241.96 112.192 231.092 116.55 220.432 122.235C209.742 127.935 200.564 135.363 190.345 141.652C171.189 153.441 151.802 165.564 133.014 178.082C121.066 186.042 108.317 192.934 96.7294 201.342C90.759 205.673 84.9472 210.2 79.2598 214.895C75.0742 218.349 67.4776 223.109 66.3645 228.879C71.974 228.879 79.5634 219.076 84.1368 216.008C87.4672 213.774 91.1952 211.969 94.6563 209.934C96.6425 208.766 102.99 202.685 105.15 202.654C108.265 202.608 108.721 207.059 107.945 209.072C106.938 211.679 103.971 213.82 102 215.689C95.5751 221.779 90.2459 229.794 85.9734 237.536C93.8324 234.646 100.35 225.159 105.938 219.08C108.891 215.867 123.982 202.011 122.91 215.137C122.513 219.993 119.009 223.705 116.566 227.721C113.924 232.066 111.203 236.472 108.88 240.991C104.159 250.166 100.593 259.605 97.7745 269.551C102.662 267.625 103.94 262.241 106.221 258.026C108.543 253.736 111.259 249.59 113.867 245.47C119.4 236.728 124.207 227.534 130.083 219.003C132.403 215.631 142.77 197.818 146.936 200.33C149.742 202.02 150.572 209.977 151.414 212.77C152.746 217.189 154.799 221.818 159.238 223.82C159.441 214.795 159.131 205.782 159.275 196.78C159.39 189.695 163.223 187.673 168.058 182.728C179.271 171.261 193.608 163.865 206.916 155.216C212.839 151.367 218.322 146.358 224.864 143.153C232.221 139.55 239.368 135.392 246.551 131.355C261.856 122.756 279.056 119.578 296.473 121.296L296.502 121.3C295.118 121.163 293.735 121.026 292.352 120.889C293.726 121.025 295.101 121.161 296.474 121.297C296.483 121.297 296.492 121.298 296.502 121.299C313.019 118.984 331.539 122.185 346.743 128.602C350.073 117.121 351.314 105.038 348.684 93.2537C347.913 89.7971 348.045 88.8523 344.824 88.7857ZM494.544 260.79C493.843 260.828 493.143 260.865 492.433 260.902C493.13 260.865 493.837 260.828 494.544 260.79ZM825.558 70.1478C820.755 74.4964 814.471 78.1035 809.167 81.7286C804.296 85.0572 799.764 88.8452 794.953 92.172C782.456 100.815 771.037 111.037 758.927 120.314C736.183 137.739 712.48 153.463 686.456 165.612C674.186 171.339 661.561 176.326 648.955 181.232C636.67 186.013 625.09 192.557 611.513 192.605C604.551 192.629 597.204 192.817 590.288 191.768C582.831 190.635 575.053 186.17 568.256 183.029C565.061 181.553 561.8 180.145 558.726 178.427C555.901 176.849 552.09 172.809 549.103 172.287C542.356 171.107 541.666 184.963 539.922 189.801C539.329 191.446 537.321 194.314 537.299 195.929C537.255 198.964 536.791 197.414 539.501 199.377C542.441 201.507 546.513 203.24 549.779 204.917C555.957 208.089 562.549 210.918 568.914 213.555C575.733 216.379 582.323 218.243 589.703 219.042C592.888 219.387 595.895 219.48 598.91 219.502L598.774 219.561C600.116 218.972 601.46 218.536 602.828 219.492L601.814 219.509C604.021 219.507 606.263 219.499 608.611 219.555C607.438 219.527 606.267 219.499 605.095 219.47C606.281 218.907 607.458 218.789 608.612 219.555C625.86 217.656 641.002 207.74 657.199 202.455C673.707 197.067 690.846 189.325 706.527 181.202C721.412 173.491 736.331 165.628 751.625 158.56C760.399 154.506 769.728 146.108 779.764 149.281C784.392 150.744 788.525 153.601 793.323 154.593C798.842 155.734 804.197 155.929 809.658 157.568C809.316 155.029 802.117 151.218 800.451 148.584C799.339 146.826 799.182 144.829 798.259 143.094C797.415 141.508 796.11 141.374 795.782 139.504C794.514 132.303 806.361 124.757 810.842 120.741C825.129 107.934 841.923 97.7071 856.157 84.5467C847.581 84.5467 837.225 95.5042 830.806 100.507C826.489 103.873 822.213 107.243 817.664 110.29C816.418 111.125 810.635 115.553 809.048 115.057C804.594 113.667 808.836 105.897 810.449 104.157C813.605 100.752 817.859 98.0143 821.484 95.137C829.113 89.0798 836.083 82.6205 842.552 75.186C836.169 75.5684 827.372 86.121 822.858 90.3102C817.925 94.888 811.396 101.098 804.983 103.5C801.671 104.74 800.028 104.401 799.78 100.384C799.498 95.8033 803.064 93.3908 806.146 90.6774C812.291 85.2667 822.144 77.7032 825.558 70.1478ZM461.317 188.037C462.17 195.583 456.605 204.922 448.259 205.233C439.316 205.566 438.798 195.073 439.117 188.702C439.288 185.282 438.87 183.265 441.23 180.901C442.209 179.921 444.583 179.501 445.745 178.556C447.241 177.339 448.249 175.567 449.719 174.3C457.295 167.769 462.22 181.984 461.317 188.037ZM427.615 135.908C430.502 137.703 433.652 142.309 435.034 145.281C437.487 150.555 439.416 155.599 440.64 161.27C439.293 167.364 433.411 183.357 424.038 179.567C414.309 175.633 414.064 163.279 414.021 154.929C413.99 148.849 417.344 129.52 427.615 135.908ZM491.371 163.97C491.514 169.516 484.35 175.563 479.953 177.909C472.795 181.727 471.35 172.157 471.827 166.98C472.36 161.194 474.685 157.992 480.012 155.531C487.923 151.876 489.72 157.259 491.371 163.97ZM377.837 168.823C377.822 168.811 377.816 168.819 377.838 168.83L377.846 168.832L377.837 168.823ZM475.585 75.4752C472.93 76.317 468.93 81.4169 466.901 83.4551C465.645 84.7151 463.493 88.5801 461.703 88.8031C459.04 89.1353 459.284 87.878 457.474 85.7109C450.656 77.5429 443.446 77.5725 439.531 87.4849C441.812 88.6159 444.228 88.8228 446.724 88.7359C447.571 88.7073 450.828 87.7338 451.455 88.1485C455.001 90.4974 449.808 92.5275 449.095 93.731C448.554 94.6443 448.29 95.4566 448.078 96.1844C448.11 96.8356 448.141 97.4881 448.17 98.1438C448.125 97.2214 448.082 96.2927 448.039 95.365L448.077 96.1898C447.562 97.9613 447.355 99.2317 444.206 100.238C441.12 101.224 438.53 100.361 435.461 99.396C435.85 105.438 435.834 116.206 440.065 121.167L440.3 121.431C441.493 121.978 442.687 122.523 443.881 123.069C443.718 123.082 443.557 123.09 443.398 123.093C445.45 123.132 447.894 122.215 449.351 121.905C448.72 118.904 445.29 108.725 446.84 106.549C449.773 102.436 451.059 108.566 451.789 111.339C453.509 117.865 457.255 126.438 463.152 130.539C463.093 130.447 463.039 130.347 462.989 130.239C464.394 130.488 465.899 130.55 466.599 132.142C466.179 131.967 465.717 131.87 465.261 131.762L465.263 131.762C470.864 134.383 481.35 138.739 486.959 135.811C494.717 131.76 500.975 125.05 507.524 119.426C503.011 117.196 502.394 113.738 505.901 110.114C513.339 118.087 517.889 100.98 520.28 95.7612C515.703 95.3573 511.599 98.111 506.918 97.1734C503.105 96.4095 498.505 95.0671 495.237 92.9224C490.87 90.0559 487.043 85.9177 483.291 82.3339C481.046 80.1883 477.996 74.7096 475.585 75.4752ZM338.208 132.572C338.42 133.443 338.628 134.294 338.833 135.147C340.083 132.786 340.083 132.786 338.208 132.572ZM482.19 131.146C480.335 130.942 472.982 129.627 477.715 127.508C480.131 126.425 482.418 128.926 482.19 131.146ZM504.296 104.647C505.325 107.068 501.222 111.405 500.071 113.485C498.266 116.745 495.121 130.379 490.03 128.998C484.432 128.983 485.359 123.652 488.436 121.055C489.509 120.15 490.684 120.107 491.748 118.953C492.672 117.95 493.245 115.939 493.86 114.712C495.368 111.705 496.73 108.221 499.117 105.798C501.035 103.851 503.057 101.735 504.296 104.647ZM477.238 101.395C479.955 101.712 478.182 103.01 479.577 104.166C480.51 104.939 480.654 105.321 480.576 105.497L480.564 105.517L480.634 105.512C481.004 105.491 481.681 105.504 482.86 105.615C485.445 105.857 493.397 103.538 488.344 108.652C487.244 109.765 480.628 112.875 479.155 112.165C475.869 110.582 477.264 104.139 477.238 101.395ZM480.564 105.517C479.905 105.569 480.424 105.739 480.562 105.521L480.564 105.517ZM263.644 104.788C262.938 104.808 262.232 104.828 261.517 104.847C262.22 104.826 262.932 104.807 263.644 104.788ZM373.192 80.5547C374.314 80.7025 375.435 80.8493 376.555 80.9971C375.433 80.8493 374.312 80.7025 373.192 80.5547Z" fill="black"/>
</svg>
