<svg width="1108" height="198" viewBox="0 0 1108 198" fill="none" xmlns="http://www.w3.org/2000/svg">
<path d="M627 45L628.5 53L639 59.5L627 45Z" fill="#D9A404"/>
<path d="M653.316 23.5L662.816 34L655.316 18.1667L653.316 23.5Z" fill="#D9A404"/>
<path d="M687.255 8L693.5 11.5L692.255 21.5L687.255 8Z" fill="#D9A404"/>
<path d="M721.95 32L729.5 25L735 27.5L721.95 32Z" fill="#D9A404"/>
<path d="M45.48 119.32C31.88 119.32 21.48 115.28 14.28 107.2C7.08 99.04 3.48 87.92 3.48 73.84C3.48 64.56 5.36 56.48 9.12 49.6C12.96 42.64 18.2 37.28 24.84 33.52C31.48 29.76 39 27.88 47.4 27.88C50.92 27.88 54.32 28.12 57.6 28.6C60.88 29 64.76 29.56 69.24 30.28C72.6 30.84 74.44 31.12 74.76 31.12L73.44 55.84H62.4L58.68 38.68C57.8 37.8 56.28 37.08 54.12 36.52C51.96 35.96 49.2 35.68 45.84 35.68C39.04 35.68 33.56 38.84 29.4 45.16C25.32 51.4 23.28 60.48 23.28 72.4C23.28 83.92 25.24 93.32 29.16 100.6C33.08 107.88 38.8 111.52 46.32 111.52C49.92 111.52 52.68 111.2 54.6 110.56C56.6 109.84 58.28 108.84 59.64 107.56L64.92 95.2L75 96.16L72.6 114.76C70.92 114.92 69.24 115.24 67.56 115.72C65.96 116.12 64.96 116.36 64.56 116.44C61.36 117.32 58.36 118 55.56 118.48C52.84 119.04 49.48 119.32 45.48 119.32ZM83.0644 99.28C83.0644 92 86.7044 86.52 93.9844 82.84C101.344 79.16 110.824 77.28 122.424 77.2V74.44C122.424 71.16 122.064 68.6 121.344 66.76C120.704 64.92 119.464 63.56 117.624 62.68C115.864 61.72 113.264 61.24 109.824 61.24C105.904 61.24 102.384 61.76 99.2644 62.8C96.1444 63.76 92.9044 65.04 89.5444 66.64L85.8244 58.96C87.0244 57.92 89.0244 56.68 91.8244 55.24C94.7044 53.8 98.1044 52.56 102.024 51.52C105.944 50.4 109.984 49.84 114.144 49.84C120.304 49.84 125.104 50.64 128.544 52.24C132.064 53.84 134.584 56.4 136.104 59.92C137.624 63.44 138.384 68.16 138.384 74.08V110.8H144.864V117.52C143.264 117.92 140.984 118.32 138.024 118.72C135.064 119.12 132.464 119.32 130.224 119.32C127.504 119.32 125.664 118.92 124.704 118.12C123.824 117.32 123.384 115.68 123.384 113.2V109.96C121.224 112.36 118.424 114.52 114.984 116.44C111.544 118.36 107.664 119.32 103.344 119.32C99.6644 119.32 96.2644 118.56 93.1444 117.04C90.1044 115.44 87.6644 113.16 85.8244 110.2C83.9844 107.16 83.0644 103.52 83.0644 99.28ZM111.024 109.36C112.704 109.36 114.624 108.88 116.784 107.92C118.944 106.88 120.824 105.64 122.424 104.2V84.52C115.224 84.52 109.824 85.76 106.224 88.24C102.704 90.64 100.944 93.76 100.944 97.6C100.944 101.44 101.824 104.36 103.584 106.36C105.424 108.36 107.904 109.36 111.024 109.36ZM152.353 110.92L160.273 109.96V62.68L152.593 60.52V52.24L171.193 49.72H171.553L174.553 52.12V54.76L174.193 64.48H174.553C175.113 62.88 176.433 60.92 178.513 58.6C180.593 56.2 183.193 54.12 186.313 52.36C189.513 50.52 192.953 49.6 196.633 49.6C198.393 49.6 199.913 49.84 201.193 50.32V68.32C198.793 66.64 195.873 65.8 192.433 65.8C186.593 65.8 181.513 67.36 177.193 70.48V109.84L191.113 110.92V118H152.353V110.92ZM223.118 40.36C220.238 40.36 217.958 39.52 216.278 37.84C214.598 36.16 213.758 34 213.758 31.36C213.758 28.32 214.718 25.8 216.638 23.8C218.558 21.8 221.118 20.8 224.318 20.8C227.518 20.8 229.958 21.68 231.638 23.44C233.318 25.12 234.158 27.24 234.158 29.8C234.158 33 233.198 35.56 231.278 37.48C229.358 39.4 226.678 40.36 223.238 40.36H223.118ZM216.758 62.68L208.238 60.4V52.36L230.198 49.72H230.438L233.798 52.12V109.84L241.838 110.8V118H208.358V110.8L216.758 109.72V62.68ZM245.039 22.24L266.999 19.6H267.239L270.599 21.88V57.28C272.759 55.12 275.399 53.32 278.519 51.88C281.719 50.36 285.159 49.6 288.839 49.6C296.519 49.6 302.759 52.32 307.559 57.76C312.439 63.12 314.879 71.36 314.879 82.48C314.879 89.36 313.439 95.6 310.559 101.2C307.679 106.8 303.519 111.24 298.079 114.52C292.719 117.72 286.479 119.32 279.359 119.32C273.039 119.32 267.559 118.8 262.919 117.76C258.279 116.64 255.319 115.64 254.039 114.76V29.92L245.039 28.48V22.24ZM282.479 60.16C280.079 60.16 277.799 60.72 275.639 61.84C273.559 62.88 271.879 64.08 270.599 65.44V109.24C271.079 110.12 272.199 110.84 273.959 111.4C275.719 111.96 277.719 112.24 279.959 112.24C285.079 112.24 289.159 109.88 292.199 105.16C295.319 100.36 296.879 93.28 296.879 83.92C296.879 75.84 295.559 69.88 292.919 66.04C290.279 62.12 286.799 60.16 282.479 60.16ZM319.219 22.24L341.179 19.6H341.419L344.779 21.88V57.28C346.939 55.12 349.579 53.32 352.699 51.88C355.899 50.36 359.339 49.6 363.019 49.6C370.699 49.6 376.939 52.32 381.739 57.76C386.619 63.12 389.059 71.36 389.059 82.48C389.059 89.36 387.619 95.6 384.739 101.2C381.859 106.8 377.699 111.24 372.259 114.52C366.899 117.72 360.659 119.32 353.539 119.32C347.219 119.32 341.739 118.8 337.099 117.76C332.459 116.64 329.499 115.64 328.219 114.76V29.92L319.219 28.48V22.24ZM356.659 60.16C354.259 60.16 351.979 60.72 349.819 61.84C347.739 62.88 346.059 64.08 344.779 65.44V109.24C345.259 110.12 346.379 110.84 348.139 111.4C349.899 111.96 351.899 112.24 354.139 112.24C359.259 112.24 363.339 109.88 366.379 105.16C369.499 100.36 371.059 93.28 371.059 83.92C371.059 75.84 369.739 69.88 367.099 66.04C364.459 62.12 360.979 60.16 356.659 60.16ZM429.038 119.32C418.478 119.32 410.598 116.24 405.398 110.08C400.278 103.84 397.718 95.36 397.718 84.64C397.718 77.44 399.038 71.2 401.678 65.92C404.398 60.64 408.198 56.6 413.078 53.8C417.958 51 423.598 49.6 429.998 49.6C437.998 49.6 444.158 51.72 448.478 55.96C452.798 60.12 455.038 66.08 455.198 73.84C455.198 79.12 454.878 83.04 454.238 85.6H415.238C415.558 92.88 417.278 98.56 420.398 102.64C423.518 106.64 427.958 108.64 433.718 108.64C436.838 108.64 440.038 108.12 443.318 107.08C446.678 106.04 449.318 104.8 451.238 103.36L454.238 109.96C452.078 112.28 448.558 114.44 443.678 116.44C438.878 118.36 433.998 119.32 429.038 119.32ZM438.398 78.4C438.558 76.16 438.638 74.44 438.638 73.24C438.638 62.6 435.078 57.28 427.958 57.28C424.038 57.28 420.998 58.84 418.838 61.96C416.678 65.08 415.478 70.56 415.238 78.4H438.398ZM463.455 99.28C463.455 92 467.095 86.52 474.375 82.84C481.735 79.16 491.215 77.28 502.815 77.2V74.44C502.815 71.16 502.455 68.6 501.735 66.76C501.095 64.92 499.855 63.56 498.015 62.68C496.255 61.72 493.655 61.24 490.215 61.24C486.295 61.24 482.775 61.76 479.655 62.8C476.535 63.76 473.295 65.04 469.935 66.64L466.215 58.96C467.415 57.92 469.415 56.68 472.215 55.24C475.095 53.8 478.495 52.56 482.415 51.52C486.335 50.4 490.375 49.84 494.535 49.84C500.695 49.84 505.495 50.64 508.935 52.24C512.455 53.84 514.975 56.4 516.495 59.92C518.015 63.44 518.775 68.16 518.775 74.08V110.8H525.255V117.52C523.655 117.92 521.375 118.32 518.415 118.72C515.455 119.12 512.855 119.32 510.615 119.32C507.895 119.32 506.055 118.92 505.095 118.12C504.215 117.32 503.775 115.68 503.775 113.2V109.96C501.615 112.36 498.815 114.52 495.375 116.44C491.935 118.36 488.055 119.32 483.735 119.32C480.055 119.32 476.655 118.56 473.535 117.04C470.495 115.44 468.055 113.16 466.215 110.2C464.375 107.16 463.455 103.52 463.455 99.28ZM491.415 109.36C493.095 109.36 495.015 108.88 497.175 107.92C499.335 106.88 501.215 105.64 502.815 104.2V84.52C495.615 84.52 490.215 85.76 486.615 88.24C483.095 90.64 481.335 93.76 481.335 97.6C481.335 101.44 482.215 104.36 483.975 106.36C485.815 108.36 488.295 109.36 491.415 109.36ZM539.464 62.68L531.784 60.52V52.24L551.704 49.72H552.064L555.064 52.12V56.8L554.944 59.68C557.744 57.04 561.384 54.76 565.864 52.84C570.344 50.92 574.864 49.96 579.424 49.96C584.304 49.96 588.104 50.88 590.824 52.72C593.624 54.48 595.624 57.28 596.824 61.12C598.024 64.96 598.624 70.16 598.624 76.72V109.84L605.944 110.8V118H574.984V110.8L581.464 109.84V76.72C581.464 72.56 581.184 69.32 580.624 67C580.064 64.6 579.024 62.88 577.504 61.84C576.064 60.72 573.984 60.16 571.264 60.16C566.704 60.16 561.824 62.12 556.624 66.04V109.72L563.824 110.8V118H532.504V110.8L539.464 109.72V62.68ZM782.042 119.2C779.402 119.2 777.482 118.64 776.282 117.52C775.082 116.4 774.482 114.72 774.482 112.48V109.24C772.322 111.88 769.282 114.24 765.362 116.32C761.442 118.32 757.522 119.32 753.602 119.32C745.922 119.32 740.442 117.36 737.162 113.44C733.882 109.44 732.242 102.88 732.242 93.76V59.92L726.242 58.24V51.4L746.642 49.84H746.762L749.162 51.52V93.76C749.162 99.6 749.882 103.68 751.322 106C752.762 108.32 755.442 109.48 759.362 109.48C764.082 109.48 768.482 107.64 772.562 103.96V59.92L764.522 58.12V51.4L786.242 49.84H786.482L789.362 51.52V110.56H796.082L795.962 117.4C795.642 117.48 794.162 117.8 791.522 118.36C788.882 118.92 785.722 119.2 782.042 119.2ZM811.282 62.68L803.602 60.52V52.24L823.522 49.72H823.882L826.882 52.12V56.8L826.762 59.68C829.562 57.04 833.202 54.76 837.682 52.84C842.162 50.92 846.682 49.96 851.242 49.96C856.122 49.96 859.922 50.88 862.642 52.72C865.442 54.48 867.442 57.28 868.642 61.12C869.842 64.96 870.442 70.16 870.442 76.72V109.84L877.762 110.8V118H846.802V110.8L853.282 109.84V76.72C853.282 72.56 853.002 69.32 852.442 67C851.882 64.6 850.842 62.88 849.322 61.84C847.882 60.72 845.802 60.16 843.082 60.16C838.522 60.16 833.642 62.12 828.442 66.04V109.72L835.642 110.8V118H804.322V110.8L811.282 109.72V62.68ZM886.242 110.92L894.162 109.96V62.68L886.482 60.52V52.24L905.082 49.72H905.442L908.442 52.12V54.76L908.082 64.48H908.442C909.002 62.88 910.322 60.92 912.402 58.6C914.482 56.2 917.082 54.12 920.202 52.36C923.402 50.52 926.842 49.6 930.522 49.6C932.282 49.6 933.802 49.84 935.082 50.32V68.32C932.682 66.64 929.762 65.8 926.322 65.8C920.482 65.8 915.402 67.36 911.082 70.48V109.84L925.002 110.92V118H886.242V110.92ZM957.007 40.36C954.127 40.36 951.847 39.52 950.167 37.84C948.487 36.16 947.647 34 947.647 31.36C947.647 28.32 948.607 25.8 950.527 23.8C952.447 21.8 955.007 20.8 958.207 20.8C961.407 20.8 963.847 21.68 965.527 23.44C967.207 25.12 968.047 27.24 968.047 29.8C968.047 33 967.087 35.56 965.167 37.48C963.247 39.4 960.567 40.36 957.127 40.36H957.007ZM950.647 62.68L942.127 60.4V52.36L964.087 49.72H964.327L967.687 52.12V109.84L975.727 110.8V118H942.247V110.8L950.647 109.72V62.68ZM997.648 108.16C998.288 109.12 999.728 110.04 1001.97 110.92C1004.29 111.72 1006.61 112.12 1008.93 112.12C1012.69 112.12 1015.49 111.36 1017.33 109.84C1019.25 108.24 1020.21 106.16 1020.21 103.6C1020.21 100.96 1019.05 98.84 1016.73 97.24C1014.41 95.56 1010.49 93.52 1004.97 91.12L1001.61 89.68C996.088 87.36 991.968 84.56 989.248 81.28C986.528 78 985.168 73.76 985.168 68.56C985.168 64.96 986.248 61.76 988.408 58.96C990.568 56.08 993.608 53.84 997.528 52.24C1001.45 50.64 1005.97 49.84 1011.09 49.84C1014.85 49.84 1018.05 50.08 1020.69 50.56C1023.41 51.04 1026.25 51.68 1029.21 52.48C1030.81 53.04 1032.01 53.36 1032.81 53.44V69.16H1023.33L1020.57 60.04C1020.09 59.24 1019.01 58.52 1017.33 57.88C1015.65 57.24 1013.73 56.92 1011.57 56.92C1008.29 56.92 1005.65 57.64 1003.65 59.08C1001.73 60.44 1000.77 62.36 1000.77 64.84C1000.77 67.08 1001.45 68.96 1002.81 70.48C1004.17 71.92 1005.65 73.04 1007.25 73.84C1008.85 74.64 1011.81 75.96 1016.13 77.8C1020.45 79.64 1024.01 81.4 1026.81 83.08C1029.69 84.76 1032.05 86.96 1033.89 89.68C1035.81 92.32 1036.77 95.56 1036.77 99.4C1036.77 105.32 1034.45 110.12 1029.81 113.8C1025.17 117.48 1018.49 119.32 1009.77 119.32C1005.69 119.32 1002.01 118.96 998.728 118.24C995.528 117.52 991.808 116.56 987.568 115.36L984.928 114.52V98.68H994.888L997.648 108.16ZM1076.79 119.32C1066.23 119.32 1058.35 116.24 1053.15 110.08C1048.03 103.84 1045.47 95.36 1045.47 84.64C1045.47 77.44 1046.79 71.2 1049.43 65.92C1052.15 60.64 1055.95 56.6 1060.83 53.8C1065.71 51 1071.35 49.6 1077.75 49.6C1085.75 49.6 1091.91 51.72 1096.23 55.96C1100.55 60.12 1102.79 66.08 1102.95 73.84C1102.95 79.12 1102.63 83.04 1101.99 85.6H1062.99C1063.31 92.88 1065.03 98.56 1068.15 102.64C1071.27 106.64 1075.71 108.64 1081.47 108.64C1084.59 108.64 1087.79 108.12 1091.07 107.08C1094.43 106.04 1097.07 104.8 1098.99 103.36L1101.99 109.96C1099.83 112.28 1096.31 114.44 1091.43 116.44C1086.63 118.36 1081.75 119.32 1076.79 119.32ZM1086.15 78.4C1086.31 76.16 1086.39 74.44 1086.39 73.24C1086.39 62.6 1082.83 57.28 1075.71 57.28C1071.79 57.28 1068.75 58.84 1066.59 61.96C1064.43 65.08 1063.23 70.56 1062.99 78.4H1086.15Z" fill="#03738C"/>
<path d="M716.367 39.6602C716.406 39.7383 716.484 39.9336 716.602 40.2461C716.719 40.5195 716.836 40.8516 716.953 41.2422C717.07 41.5938 717.168 41.9648 717.246 42.3555C717.363 42.707 717.422 42.9609 717.422 43.1172C717.422 44.4453 717.148 46.0469 716.602 47.9219C716.055 49.7578 715.293 51.7109 714.316 53.7812C713.379 55.8516 712.266 57.9609 710.977 60.1094C709.688 62.2578 708.32 64.3086 706.875 66.2617C705.43 68.1758 703.926 69.9336 702.363 71.5352C700.84 73.0977 699.336 74.3477 697.852 75.2852C697.305 74.7773 696.641 74.1719 695.859 73.4688C695.117 72.7656 694.316 72.0234 693.457 71.2422C692.598 70.4219 691.738 69.6016 690.879 68.7812C690.02 67.9609 689.219 67.1602 688.477 66.3789C689.609 65.4805 690.879 64.3086 692.285 62.8633C693.73 61.3789 695.176 59.7383 696.621 57.9414C698.105 56.1445 699.551 54.2891 700.957 52.375C702.363 50.4609 703.574 48.625 704.59 46.8672C705.645 45.0703 706.465 43.4492 707.051 42.0039C707.637 40.5586 707.852 39.4063 707.695 38.5469C707.578 38.1172 707.383 37.8242 707.109 37.668C706.875 37.4727 706.426 37.375 705.762 37.375C703.379 37.375 700.625 37.8438 697.5 38.7812C694.375 39.7188 691.113 41.0859 687.715 42.8828C684.316 44.6406 680.879 46.8086 677.402 49.3867C673.965 51.9648 670.723 54.875 667.676 58.1172C664.668 61.3594 661.973 64.9141 659.59 68.7812C657.246 72.6484 655.449 76.7695 654.199 81.1445C656.934 81.1055 659.531 81.0078 661.992 80.8516C664.453 80.6562 666.797 80.4609 669.023 80.2656C671.25 80.0703 673.379 79.8945 675.41 79.7383C677.441 79.582 679.414 79.5039 681.328 79.5039C682.344 79.5039 683.438 80.0508 684.609 81.1445C685.781 82.2383 686.875 83.5469 687.891 85.0703C688.906 86.5938 689.746 88.1562 690.41 89.7578C691.074 91.3594 691.406 92.6484 691.406 93.625C691.406 96.3984 690.684 99.1914 689.238 102.004C687.832 104.777 685.918 107.473 683.496 110.09C681.113 112.668 678.34 115.09 675.176 117.355C672.012 119.582 668.672 121.516 665.156 123.156C661.68 124.836 658.125 126.145 654.492 127.082C650.859 128.059 647.402 128.547 644.121 128.547C643.691 128.195 643.125 127.648 642.422 126.906C641.719 126.203 640.957 125.402 640.137 124.504C639.355 123.645 638.535 122.727 637.676 121.75C636.855 120.773 636.094 119.836 635.391 118.938C634.648 118.039 634.004 117.219 633.457 116.477C632.91 115.734 632.539 115.168 632.344 114.777C634.492 115.09 637.07 115.168 640.078 115.012C643.125 114.855 646.328 114.426 649.688 113.723C653.047 113.02 656.426 112.023 659.824 110.734C663.262 109.406 666.465 107.746 669.434 105.754C672.402 103.762 675.02 101.398 677.285 98.6641C679.551 95.8906 681.191 92.6875 682.207 89.0547C679.941 89.0938 677.891 89.2109 676.055 89.4062C674.219 89.5625 672.441 89.7578 670.723 89.9922C669.004 90.1875 667.246 90.3633 665.449 90.5195C663.652 90.6758 661.66 90.7539 659.473 90.7539C658.77 90.7539 658.008 90.7539 657.188 90.7539C656.367 90.7148 655.547 90.6562 654.727 90.5781C653.906 90.4609 653.125 90.2852 652.383 90.0508C651.641 89.8164 651.035 89.4844 650.566 89.0547C649.512 88.1562 648.496 87.2188 647.52 86.2422C646.543 85.2266 645.664 84.2109 644.883 83.1953C644.102 82.1406 643.477 81.0859 643.008 80.0312C642.539 78.9766 642.305 77.9609 642.305 76.9844C642.305 74.0156 643.047 70.7148 644.531 67.082C646.016 63.4102 648.066 59.7188 650.684 56.0078C653.34 52.2969 656.465 48.7031 660.059 45.2266C663.652 41.7109 667.559 38.5859 671.777 35.8516C676.035 33.1172 680.508 30.9297 685.195 29.2891C689.883 27.6484 694.629 26.8281 699.434 26.8281C701.113 26.8281 702.637 27.082 704.004 27.5898C705.41 28.0977 706.68 28.7617 707.812 29.582C708.945 30.4023 709.961 31.3203 710.859 32.3359C711.758 33.3125 712.559 34.2695 713.262 35.207C713.965 36.1445 714.57 37.0234 715.078 37.8438C715.586 38.625 716.016 39.2305 716.367 39.6602Z" fill="#D9A404"/>
<path d="M320.237 176.685H310.943V190H308.218V158.008H318.611C322.025 158.008 324.691 158.835 326.609 160.491C328.528 162.146 329.488 164.46 329.488 167.434C329.488 169.485 328.887 171.294 327.686 172.861C326.485 174.429 324.874 175.513 322.852 176.113L330.85 189.714V190H327.972L320.237 176.685ZM310.943 174.377H319.227C321.497 174.377 323.321 173.733 324.698 172.444C326.075 171.155 326.763 169.485 326.763 167.434C326.763 165.178 326.046 163.428 324.61 162.183C323.174 160.938 321.16 160.315 318.567 160.315H310.943V174.377ZM370.715 174.663H355.751V187.715H372.956V190H353.049V158.008H372.846V160.315H355.751V172.378H370.715V174.663ZM418.577 190H415.853V174.663H397.571V190H394.869V158.008H397.571V172.378H415.853V158.008H418.577V190ZM460.595 181.035H446.071L442.775 190H439.941L452.048 158.008H454.619L466.726 190H463.913L460.595 181.035ZM446.906 178.728H459.738L453.322 161.304L446.906 178.728ZM487.65 190V158.008H497.098C500.526 158.008 503.126 158.718 504.898 160.139C506.671 161.545 507.557 163.625 507.557 166.379C507.557 168.035 507.103 169.478 506.195 170.708C505.301 171.924 504.071 172.795 502.503 173.323C504.364 173.733 505.858 174.648 506.986 176.069C508.128 177.49 508.7 179.131 508.7 180.991C508.7 183.818 507.784 186.03 505.953 187.627C504.137 189.209 501.602 190 498.35 190H487.65ZM490.352 174.619V187.715H498.46C500.775 187.715 502.606 187.129 503.953 185.957C505.316 184.771 505.997 183.13 505.997 181.035C505.997 179.058 505.345 177.498 504.041 176.355C502.752 175.198 500.965 174.619 498.68 174.619H490.352ZM490.352 172.356H497.735C499.991 172.312 501.734 171.785 502.965 170.774C504.21 169.749 504.832 168.262 504.832 166.313C504.832 164.263 504.188 162.754 502.899 161.787C501.624 160.806 499.691 160.315 497.098 160.315H490.352V172.356ZM581.244 180.024C580.877 183.394 579.669 185.972 577.618 187.759C575.582 189.546 572.865 190.439 569.466 190.439C567.093 190.439 564.991 189.846 563.16 188.66C561.344 187.473 559.937 185.796 558.941 183.628C557.945 181.445 557.44 178.955 557.425 176.157V172.004C557.425 169.163 557.923 166.643 558.919 164.446C559.915 162.249 561.344 160.557 563.204 159.37C565.079 158.169 567.232 157.568 569.664 157.568C573.092 157.568 575.794 158.499 577.772 160.359C579.764 162.205 580.921 164.761 581.244 168.027H578.519C577.845 162.593 574.893 159.875 569.664 159.875C566.764 159.875 564.449 160.959 562.721 163.127C561.007 165.295 560.15 168.291 560.15 172.114V176.025C560.15 179.717 560.985 182.661 562.655 184.858C564.339 187.056 566.61 188.154 569.466 188.154C572.293 188.154 574.425 187.48 575.86 186.133C577.296 184.771 578.182 182.734 578.519 180.024H581.244ZM621.679 174.663H606.716V187.715H623.921V190H604.013V158.008H623.811V160.315H606.716V172.378H621.679V174.663ZM669.652 190H666.949L648.558 162.622V190H645.833V158.008H648.558L666.971 185.408V158.008H669.652V190ZM715.032 160.315H704.067V190H701.365V160.315H690.422V158.008H715.032V160.315ZM754.083 174.663H739.12V187.715H756.324V190H736.417V158.008H756.214V160.315H739.12V172.378H754.083V174.663ZM790.19 176.685H780.896V190H778.171V158.008H788.564C791.977 158.008 794.643 158.835 796.562 160.491C798.481 162.146 799.441 164.46 799.441 167.434C799.441 169.485 798.84 171.294 797.639 172.861C796.438 174.429 794.827 175.513 792.805 176.113L800.803 189.714V190H797.925L790.19 176.685ZM780.896 174.377H789.18C791.45 174.377 793.274 173.733 794.651 172.444C796.028 171.155 796.716 169.485 796.716 167.434C796.716 165.178 795.998 163.428 794.563 162.183C793.127 160.938 791.113 160.315 788.52 160.315H780.896V174.377Z" fill="#8C3503"/>
<path d="M654 81H643.5C643.5 81 647 87.5 651 89.5C652.5 90.5 659.5 91.5 665.5 90.5C672.378 90.4261 679 89 681.5 89C683 92 672.593 103.447 663.5 109C652.649 115.627 632 114.5 632 114.5C636 120.5 638.5 124 644 128.5C644 128.5 654.5 129 668 122C675.976 117.864 682.137 113.045 687.5 105C690.5 100.5 692.5 96 691 90.5C689.908 86.4949 687.5 81 682 79.5C677 78.5 669 80 669 80L654 81Z" fill="#03738C"/>
</svg>
